# xmcd
#
# Track frame offsets: 
#        150
#        18934
#        39583
#        62691
#        77277
#        91687
#        110048
#        129322
#        143559
#        158967
#
# Disc length: 2440 seconds
#
# Revision: 2
# Processed by: cddbd v1.5.2PL0 Copyright (c) Steve Scherf et al.
# Submitted via: ExactAudioCopy v0.99pb4
#
DISCID=7009860a
DTITLE=Fabian Anderhub - It's A Blues Thing
DYEAR=2012
DGENRE=Blues Rock
TTITLE0=It's A Blues Thing
TTITLE1=Dimples 
TTITLE2=Midnight Train
TTITLE3=Trying To Find My Baby
TTITLE4=Come When I Call 
TTITLE5=You Dont Love Me
TTITLE6=Right Place Wrong Time
TTITLE7=Naturally Drawn To You
TTITLE8=Love Me Darling 
TTITLE9=Mrs. Bombshell
EXTD=
EXTT0=
EXTT1=
EXTT2=
EXTT3=
EXTT4=
EXTT5=
EXTT6=
EXTT7=
EXTT8=
EXTT9=
PLAYORDER=
